<svg xmlns="http://www.w3.org/2000/svg" viewBox="0 0 200 200">
  <!-- Nacho triangle with shadow effect -->
  <defs>
    <filter id="shadow" x="-20%" y="-20%" width="140%" height="140%">
      <feDropShadow dx="2" dy="2" stdDeviation="2" flood-opacity="0.3"/>
    </filter>
  </defs>

  <!-- Main nacho triangle with rounded corners -->
  <path d="M100 33 
           C100 33, 103 30, 106 30
           L167 147
           C170 152, 165 155, 162 155
           L38 155
           C35 155, 30 152, 33 147
           L94 30
           C97 30, 100 33, 100 33"
        fill="#FFD700" 
        stroke="#E8B800" 
        stroke-width="2"
        filter="url(#shadow)"/>
  
  <!-- Texture lines for nacho -->
  <path d="M70 120 L90 80 M110 80 L130 120" 
        stroke="#E8B800" 
        stroke-width="1.5"
        fill="none"/>

  <!-- Left clock eye -->
  <circle cx="70" cy="90" r="15" 
          fill="white" 
          stroke="#333333" 
          stroke-width="2"/>
  
  <!-- Left clock markings -->
  <line x1="70" y1="78" x2="70" y2="82" stroke="#333333" stroke-width="2"/>
  <line x1="70" y1="98" x2="70" y2="102" stroke="#333333" stroke-width="2"/>
  <line x1="58" y1="90" x2="62" y2="90" stroke="#333333" stroke-width="2"/>
  <line x1="78" y1="90" x2="82" y2="90" stroke="#333333" stroke-width="2"/>
  
  <!-- Left clock hands -->
  <line x1="70" y1="90" x2="70" y2="80" 
        stroke="#333333" 
        stroke-width="2" 
        stroke-linecap="round"/>
  <line x1="70" y1="90" x2="77" y2="93" 
        stroke="#333333" 
        stroke-width="2" 
        stroke-linecap="round"/>

  <!-- Right clock eye -->
  <circle cx="130" cy="90" r="15" 
          fill="white" 
          stroke="#333333" 
          stroke-width="2"/>
  
  <!-- Right clock markings -->
  <line x1="130" y1="78" x2="130" y2="82" stroke="#333333" stroke-width="2"/>
  <line x1="130" y1="98" x2="130" y2="102" stroke="#333333" stroke-width="2"/>
  <line x1="118" y1="90" x2="122" y2="90" stroke="#333333" stroke-width="2"/>
  <line x1="138" y1="90" x2="142" y2="90" stroke="#333333" stroke-width="2"/>
  
  <!-- Right clock hands -->
  <line x1="130" y1="90" x2="130" y2="80" 
        stroke="#333333" 
        stroke-width="2" 
        stroke-linecap="round"/>
  <line x1="130" y1="90" x2="137" y2="93" 
        stroke="#333333" 
        stroke-width="2" 
        stroke-linecap="round"/>

  <!-- Big smile -->
  <path d="M70 120 Q100 145 130 120" 
        fill="none"
        stroke="#333333" 
        stroke-width="3"
        stroke-linecap="round"/>

  <!-- Center dots for clock eyes -->
  <circle cx="70" cy="90" r="2" fill="#333333"/>
  <circle cx="130" cy="90" r="2" fill="#333333"/>
</svg>